<?xml version="1.0" encoding="UTF-8"?>
<svg version="1.1" xmlns="http://www.w3.org/2000/svg" width="512" height="512">
<path d="M0 0 C3.91939778 6.55368393 4.49812563 11.30405384 4.21484375 18.8515625 C4.17889147 20.94010168 4.14308864 23.02864343 4.10742188 25.1171875 C4.02645536 28.38045802 3.93696911 31.64334238 3.8425293 34.90625 C3.75801371 38.07546531 3.70402767 41.24416773 3.65234375 44.4140625 C3.61398911 45.38606598 3.57563446 46.35806946 3.53611755 47.35952759 C3.47241604 51.74438366 3.4424843 54.94467308 6.24951172 58.46533203 C8.55954173 60.59410281 10.71815416 62.4495588 13.35546875 64.140625 C14.53592773 64.91019531 14.53592773 64.91019531 15.74023438 65.6953125 C16.54783203 66.20835937 17.35542969 66.72140625 18.1875 67.25 C19.80721529 68.2949776 21.42576175 69.34176976 23.04296875 70.390625 C24.11067505 71.0717334 24.11067505 71.0717334 25.19995117 71.76660156 C27 73 27 73 29 75 C29.47898442 78.62538878 29.3703783 82.2840478 29.375 85.9375 C29.39949219 86.95263672 29.42398438 87.96777344 29.44921875 89.01367188 C29.45308594 89.98755859 29.45695313 90.96144531 29.4609375 91.96484375 C29.46915527 92.8580835 29.47737305 93.75132324 29.48583984 94.67163086 C29 97 29 97 27.40991211 98.65429688 C24.38072299 100.34580639 21.26081101 101.48027694 17.98046875 102.56640625 C16.56264157 103.05121382 15.14492123 103.5363339 13.72729492 104.02172852 C12.98643646 104.27270294 12.245578 104.52367737 11.48226929 104.78225708 C-16.9297296 114.44260119 -44.83272373 125.89547289 -69 144 C-69.969375 144.72574219 -70.93875 145.45148438 -71.9375 146.19921875 C-79.29127816 151.98176815 -85.80290459 158.6019284 -92.32177734 165.29003906 C-94.5322677 167.54233387 -96.76759698 169.76944587 -99 172 C-99.1856764 158.35225854 -99.32766832 144.70481945 -99.41449738 131.05607033 C-99.45617963 124.71775196 -99.51268309 118.38030015 -99.60351562 112.04248047 C-99.69068633 105.92158922 -99.73832647 99.80152941 -99.75901794 93.68006516 C-99.77375583 91.34926648 -99.80253648 89.01851136 -99.84584045 86.68806839 C-100.2125466 66.12855958 -100.2125466 66.12855958 -95.10766602 59.67211914 C-92.96705627 57.62294006 -92.96705627 57.62294006 -91 56 C-89.76056641 54.55560547 -89.76056641 54.55560547 -88.49609375 53.08203125 C-86.3436557 50.70903978 -84.18000567 48.34769841 -82 46 C-81.46117187 45.40703125 -80.92234375 44.8140625 -80.3671875 44.203125 C-63.39352237 26.29121708 -25.95774553 -1.52692621 0 0 Z " fill="#5373FF" transform="translate(363,163)"/>
<path d="M0 0 C36.34041012 4.14243017 71.14863565 31.99712396 94 59 C94.43403735 59.47736634 94.8680747 59.95473269 95.3152647 60.44656467 C99.56965667 65.59644548 99.68871112 70.01834787 99.56762695 76.52514648 C99.56872215 78.07749748 99.56872215 78.07749748 99.56983948 79.66120911 C99.56636981 83.06504633 99.52753595 86.46749703 99.48828125 89.87109375 C99.47895097 92.23762769 99.47183588 94.60417132 99.46684265 96.97071838 C99.44779009 103.18682717 99.39870316 109.40234796 99.34332275 115.6182251 C99.29209335 121.96610562 99.26932065 128.31408153 99.24414062 134.66210938 C99.19058367 147.10833067 99.10529108 159.55411636 99 172 C96.1075333 169.11354798 93.23591166 166.21662294 90.42578125 163.25 C80.7345408 153.17205889 70.68136683 144.67585966 59 137 C58.39043457 136.59378418 57.78086914 136.18756836 57.15283203 135.76904297 C38.02490751 123.16894475 16.48415637 114.62749035 -5 107 C-8.13574536 105.87998691 -11.27057723 104.7575893 -14.40356445 103.62988281 C-16.34116192 102.93386966 -18.28101981 102.24410785 -20.22338867 101.56152344 C-21.08552979 101.25375977 -21.9476709 100.94599609 -22.8359375 100.62890625 C-23.59438965 100.36150635 -24.3528418 100.09410645 -25.13427734 99.81860352 C-27 99 -27 99 -29 97 C-30.28187718 89.5989573 -31.26989888 78.89842584 -27.41015625 72.26953125 C-25.03530607 70.46155309 -22.70529112 69.25968675 -20 68 C-17.87730886 66.65377391 -15.77340568 65.27754763 -13.6875 63.875 C-12.70136719 63.25367188 -11.71523437 62.63234375 -10.69921875 61.9921875 C-7.66555947 59.75316256 -5.97314751 58.23815285 -4 55 C-3.49279035 51.49407467 -3.62997568 48.04506219 -3.75 44.51171875 C-3.76514648 43.49455276 -3.78029297 42.47738678 -3.79589844 41.42939758 C-3.86110952 37.08859794 -3.97342879 32.74932016 -4.08203125 28.40942383 C-4.15466547 25.23526061 -4.20286005 22.06134691 -4.25 18.88671875 C-4.28319336 17.91562668 -4.31638672 16.94453461 -4.35058594 15.9440155 C-4.44276756 9.49597455 -3.316728 5.54841912 0 0 Z " fill="#5373FF" transform="translate(150,163)"/>
<path d="M0 0 C6.84717659 0.57806128 12.94282649 2.36294988 19.4375 4.5625 C20.49864014 4.92182617 21.55978027 5.28115234 22.65307617 5.65136719 C36.62228095 10.48763281 48.85484746 16.67594975 61.25146484 24.70458984 C68.17174778 29.17956331 75.26955788 32.94470446 82.83203125 36.23046875 C100.63371059 44.3568043 115.19712698 60.04267434 128.76171875 73.8125 C129.56174316 74.62307861 130.36176758 75.43365723 131.18603516 76.26879883 C132.73139186 77.84162078 134.26927809 79.42182993 135.79833984 81.01049805 C142.04352281 87.38872376 148.69949886 92.65261286 158 93 C171.71772535 90.68368615 184.76976687 73.41748088 193.89575195 64.11914062 C198.23070482 59.70915556 202.62188233 55.47264998 207.31982422 51.45043945 C209.24482889 49.78864743 211.04899612 48.01919487 212.875 46.25 C234.56368586 27.19024576 265.43322383 16.34533165 292 6 C292.87688477 5.65404785 293.75376953 5.3080957 294.65722656 4.95166016 C307.22084072 0 307.22084072 0 312 0 C314.60739273 8.31106433 314.60739273 8.31106433 314 12 C312.1056132 13.91245726 310.27827075 15.52013586 308.1875 17.1875 C302.54119956 21.9672164 298.91822537 26.94147227 295.3125 33.375 C291.13918653 40.6362244 287.91419982 44.73220137 280 48 C277.0076065 49.32569734 274.03350255 50.68961364 271.0625 52.0625 C270.24313965 52.43793945 269.4237793 52.81337891 268.57958984 53.20019531 C261.64048448 56.47688307 255.52281278 60.5326519 249.28759766 64.97949219 C243.37175662 69.16556227 237.27254371 72.79831623 230.9375 76.3125 C223.72727506 80.35172581 217.10234225 84.37070754 211 90 C210.39849121 90.55091309 209.79698242 91.10182617 209.17724609 91.66943359 C202.8652181 97.46489935 196.5823154 103.27701962 190.6875 109.5 C180.07232555 120.18501113 168.61226566 123.25290356 154 123.4375 C141.46641302 123.36239861 132.20396914 120.90479615 123 112 C121.1952355 109.84708802 119.51939069 107.62949838 117.84375 105.375 C99.93282147 82.30329546 70.47165839 68.45359225 45.09033203 55.56884766 C40.77811484 53.37969395 36.47655353 51.17166317 32.1875 48.9375 C31.53104492 48.60395508 30.87458984 48.27041016 30.19824219 47.92675781 C23.01019489 44.17465045 18.9261957 40.71451593 16 33 C13.12978744 26.66161394 8.87826644 22.88694944 3.65625 18.33203125 C-2.91424671 12.56352164 -2.91424671 12.56352164 -3.4375 9.125 C-2.94124579 5.58032707 -1.76708808 3.09240414 0 0 Z " fill="#5373FF" transform="translate(101,283)"/>
<path d="M0 0 C3.35229929 1.6953422 5.52873123 4.20563249 8 7 C8.46631836 7.52078125 8.93263672 8.0415625 9.41308594 8.578125 C12.7718131 12.34159468 16.05184197 16.16736122 19.31103516 20.01708984 C20.95623967 21.94862368 22.62040151 23.8616732 24.29296875 25.76953125 C26.81444594 28.64945373 29.2990639 31.55630024 31.74755859 34.49853516 C32.84630667 35.81574777 33.96278376 37.11812974 35.08203125 38.41796875 C39.21116153 43.72685054 39.62573744 48.23473586 39.50390625 54.88671875 C38.40080472 61.70200496 34.4579431 66.10033829 30 71.0625 C28.82739189 72.38997778 27.65552955 73.71811466 26.484375 75.046875 C25.89849609 75.70880859 25.31261719 76.37074219 24.70898438 77.05273438 C22.17858802 79.93594028 19.7141165 82.87268192 17.25 85.8125 C2.27206699 103.58522848 2.27206699 103.58522848 -2.41796875 104.44140625 C-7.30845037 104.65523549 -11.00690482 104.6540397 -14.875 101.4375 C-16.29431731 100.0008033 -17.66210674 98.51281217 -19 97 C-19.46631836 96.47921875 -19.93263672 95.9584375 -20.41308594 95.421875 C-23.7718131 91.65840532 -27.05184197 87.83263878 -30.31103516 83.98291016 C-31.95623967 82.05137632 -33.62040151 80.1383268 -35.29296875 78.23046875 C-37.81541812 75.3498223 -40.29874631 72.44056552 -42.74755859 69.49707031 C-43.84177576 68.18912886 -44.95998287 66.90133293 -46.08203125 65.6171875 C-50.35300218 60.19595508 -50.90716257 55.18766694 -50.5703125 48.35546875 C-49.67276258 43.07467849 -47.5218518 39.94195341 -44 36 C-43.23816406 35.14019531 -42.47632813 34.28039062 -41.69140625 33.39453125 C-39.99739176 31.52080851 -38.28854921 29.66040303 -36.56640625 27.8125 C-34.14200693 25.15562403 -31.87281562 22.43170988 -29.625 19.625 C-26.07900791 15.23532822 -22.38083683 11.02685593 -18.5625 6.875 C-17.78156982 6.02156006 -17.78156982 6.02156006 -16.98486328 5.15087891 C-11.75372588 -0.48729722 -7.59395895 -1.17229148 0 0 Z " fill="#5373FF" transform="translate(262,102)"/>
<path d="M0 0 C3 6.5 3 6.5 3 11 C2.40799805 11.13986328 1.81599609 11.27972656 1.20605469 11.42382812 C-47.80729619 23.17192225 -88.92837145 50.54165399 -125.35864258 84.69970703 C-128.89711996 88 -128.89711996 88 -130 88 C-130.80006972 81.01050201 -130.97549439 75.4084847 -126.8125 69.5 C-125.25833296 67.62409312 -123.6488209 65.79327953 -122 64 C-121.30052246 63.2265625 -121.30052246 63.2265625 -120.58691406 62.4375 C-108.6263028 49.35238682 -94.3842898 39.63451824 -79 31 C-78.27731934 30.58814453 -77.55463867 30.17628906 -76.81005859 29.75195312 C-56.91756502 18.510391 -35.43318195 10.0006063 -13.8125 2.6875 C-12.97654297 2.40358398 -12.14058594 2.11966797 -11.27929688 1.82714844 C-7.41391535 0.57390657 -4.11863811 -0.3549127 0 0 Z " fill="#5373FF" transform="translate(399,269)"/>
<path d="M0 0 C7.04528904 0.55754086 13.2298528 2.52880219 19.875 4.875 C21.00977783 5.27356201 22.14455566 5.67212402 23.3137207 6.08276367 C60.62417876 19.40774356 105.6552874 38.08935282 128.828125 72.296875 C131.0252762 77.36497044 130.5331471 82.60082777 130 88 C125.52031907 84.88741516 121.49326731 81.60318117 117.6875 77.6875 C112.77934603 72.68814722 107.52904176 68.29202563 102 64 C100.94159912 63.17556396 100.94159912 63.17556396 99.86181641 62.33447266 C68.83942423 38.29648397 35.51863271 19.6056666 -3 11 C-2.39354978 7.05534182 -1.61473885 3.66007473 0 0 Z " fill="#5373FF" transform="translate(114,269)"/>
</svg>
